<svg width="31" height="23" viewBox="0 0 31 23" fill="none" xmlns="http://www.w3.org/2000/svg">
<path d="M0.2 9.54C0.88 9.54 1.35333 9.44 1.62 9.24C1.9 9.04 2.04 8.72 2.04 8.28C2.04 7.94667 1.96667 7.38667 1.82 6.6C1.63333 5.58667 1.54 4.8 1.54 4.24C1.54 2.92 1.94667 1.9 2.76 1.18C3.57333 0.459999 4.68 0.0999992 6.08 0.0999992H7.6V3.64H6.92C6.49333 3.64 6.18667 3.73333 6 3.92C5.82667 4.10667 5.74 4.37333 5.74 4.72C5.74 4.93333 5.79333 5.46667 5.9 6.32C6.03333 7.30667 6.1 8.02 6.1 8.46C6.1 9.24667 5.92 9.89333 5.56 10.4C5.2 10.8933 4.66 11.2067 3.94 11.34V11.38C4.66 11.5133 5.2 11.8333 5.56 12.34C5.92 12.8333 6.1 13.4733 6.1 14.26C6.1 14.7 6.03333 15.4133 5.9 16.4C5.79333 17.2533 5.74 17.7867 5.74 18C5.74 18.3467 5.82667 18.6133 6 18.8C6.18667 18.9867 6.49333 19.08 6.92 19.08H7.6V22.62H6.08C4.68 22.62 3.57333 22.26 2.76 21.54C1.94667 20.82 1.54 19.8 1.54 18.48C1.54 17.92 1.63333 17.1333 1.82 16.12C1.96667 15.3333 2.04 14.7733 2.04 14.44C2.04 14.0267 1.9 13.7133 1.62 13.5C1.34 13.2733 0.866667 13.16 0.2 13.16V9.54ZM16.8075 18L14.1475 12.92H14.1275V18H9.6875V3.84H16.2875C17.4342 3.84 18.4142 4.04667 19.2275 4.46C20.0408 4.86 20.6475 5.41333 21.0475 6.12C21.4608 6.81333 21.6675 7.6 21.6675 8.48C21.6675 9.42667 21.4008 10.2667 20.8675 11C20.3475 11.7333 19.5942 12.26 18.6075 12.58L21.6875 18H16.8075ZM14.1275 9.96H15.8875C16.3142 9.96 16.6342 9.86667 16.8475 9.68C17.0608 9.48 17.1675 9.17333 17.1675 8.76C17.1675 8.38667 17.0542 8.09333 16.8275 7.88C16.6142 7.66667 16.3008 7.56 15.8875 7.56H14.1275V9.96ZM30.5659 13.16C29.8993 13.16 29.4259 13.2733 29.1459 13.5C28.8659 13.7133 28.7259 14.0267 28.7259 14.44C28.7259 14.7733 28.7993 15.3333 28.9459 16.12C29.1326 17.1333 29.2259 17.92 29.2259 18.48C29.2259 19.8 28.8193 20.82 28.0059 21.54C27.1926 22.26 26.0859 22.62 24.6859 22.62H23.1659V19.08H23.8459C24.2726 19.08 24.5726 18.9867 24.7459 18.8C24.9326 18.6133 25.0259 18.3467 25.0259 18C25.0259 17.7867 24.9726 17.2533 24.8659 16.4C24.7326 15.4133 24.6659 14.7 24.6659 14.26C24.6659 13.4733 24.8459 12.8333 25.2059 12.34C25.5659 11.8333 26.1059 11.5133 26.8259 11.38V11.34C26.1059 11.2067 25.5659 10.8933 25.2059 10.4C24.8459 9.89333 24.6659 9.24667 24.6659 8.46C24.6659 8.02 24.7326 7.30667 24.8659 6.32C24.9726 5.46667 25.0259 4.93333 25.0259 4.72C25.0259 4.37333 24.9326 4.10667 24.7459 3.92C24.5726 3.73333 24.2726 3.64 23.8459 3.64H23.1659V0.0999992H24.6859C26.0859 0.0999992 27.1926 0.459999 28.0059 1.18C28.8193 1.9 29.2259 2.92 29.2259 4.24C29.2259 4.8 29.1326 5.58667 28.9459 6.6C28.7993 7.38667 28.7259 7.94667 28.7259 8.28C28.7259 8.72 28.8593 9.04 29.1259 9.24C29.4059 9.44 29.8859 9.54 30.5659 9.54V13.16Z" fill="white"/>
</svg>
